<svg width="97" height="97" viewBox="0 0 97 97" fill="none" xmlns="http://www.w3.org/2000/svg">
<g opacity="0.8" filter="url(#filter0_d_40_656)">
<circle cx="48.5" cy="44.5" r="44.5" fill="#F8D6CB"/>
</g>
<path d="M41.455 30.1536H53.7002C58.365 30.1536 62.1552 33.9048 62.1552 38.5217V50.6412C62.1552 52.8605 61.2644 54.989 59.6788 56.5583C58.0931 58.1277 55.9426 59.0093 53.7002 59.0093H41.455C36.7902 59.0093 33 55.2581 33 50.6412V38.5217C33 36.3024 33.8908 34.1739 35.4764 32.6045C37.062 31.0352 39.2126 30.1536 41.455 30.1536ZM41.1634 33.0391C39.7716 33.0391 38.4368 33.5864 37.4526 34.5604C36.4684 35.5345 35.9155 36.8556 35.9155 38.2332V50.9297C35.9155 53.8009 38.2625 56.1237 41.1634 56.1237H53.9917C55.3836 56.1237 56.7184 55.5765 57.7026 54.6025C58.6868 53.6284 59.2397 52.3073 59.2397 50.9297V38.2332C59.2397 35.362 56.8927 33.0391 53.9917 33.0391H41.1634ZM55.2308 35.2033C55.7141 35.2033 56.1776 35.3933 56.5193 35.7316C56.861 36.0698 57.053 36.5285 57.053 37.0068C57.053 37.4851 56.861 37.9438 56.5193 38.2821C56.1776 38.6203 55.7141 38.8103 55.2308 38.8103C54.7475 38.8103 54.2841 38.6203 53.9423 38.2821C53.6006 37.9438 53.4086 37.4851 53.4086 37.0068C53.4086 36.5285 53.6006 36.0698 53.9423 35.7316C54.2841 35.3933 54.7475 35.2033 55.2308 35.2033ZM47.5776 37.3675C49.5107 37.3675 51.3646 38.1275 52.7315 39.4804C54.0985 40.8333 54.8664 42.6682 54.8664 44.5814C54.8664 46.4947 54.0985 48.3296 52.7315 49.6825C51.3646 51.0353 49.5107 51.7954 47.5776 51.7954C45.6445 51.7954 43.7905 51.0353 42.4236 49.6825C41.0567 48.3296 40.2888 46.4947 40.2888 44.5814C40.2888 42.6682 41.0567 40.8333 42.4236 39.4804C43.7905 38.1275 45.6445 37.3675 47.5776 37.3675ZM47.5776 40.2531C46.4177 40.2531 45.3054 40.7091 44.4852 41.5208C43.6651 42.3326 43.2043 43.4335 43.2043 44.5814C43.2043 45.7294 43.6651 46.8303 44.4852 47.6421C45.3054 48.4538 46.4177 48.9098 47.5776 48.9098C48.7375 48.9098 49.8498 48.4538 50.67 47.6421C51.4901 46.8303 51.9509 45.7294 51.9509 44.5814C51.9509 43.4335 51.4901 42.3326 50.67 41.5208C49.8498 40.7091 48.7375 40.2531 47.5776 40.2531Z" fill="#620D09"/>
<defs>
<filter id="filter0_d_40_656" x="0" y="0" width="97" height="97" filterUnits="userSpaceOnUse" color-interpolation-filters="sRGB">
<feFlood flood-opacity="0" result="BackgroundImageFix"/>
<feColorMatrix in="SourceAlpha" type="matrix" values="0 0 0 0 0 0 0 0 0 0 0 0 0 0 0 0 0 0 127 0" result="hardAlpha"/>
<feOffset dy="4"/>
<feGaussianBlur stdDeviation="2"/>
<feComposite in2="hardAlpha" operator="out"/>
<feColorMatrix type="matrix" values="0 0 0 0 0.384314 0 0 0 0 0.0509804 0 0 0 0 0.0352941 0 0 0 1 0"/>
<feBlend mode="normal" in2="BackgroundImageFix" result="effect1_dropShadow_40_656"/>
<feBlend mode="normal" in="SourceGraphic" in2="effect1_dropShadow_40_656" result="shape"/>
</filter>
</defs>
</svg>
