<svg width="148" height="90" viewBox="0 0 148 90" fill="none" xmlns="http://www.w3.org/2000/svg">
<path d="M0 0H143C145.761 0 148 2.23858 148 5V90H0V0Z" fill="url(#paint0_linear_40_518)"/>
<g filter="url(#filter0_d_40_518)">
<path d="M33.64 22.744C33.64 23.576 33.8427 24.3013 34.248 24.92C34.6533 25.5387 35.144 26.0613 35.72 26.488C36.3173 26.8933 37.128 27.4053 38.152 28.024C39.2827 28.7067 40.1467 29.272 40.744 29.72C41.3627 30.168 41.8853 30.744 42.312 31.448C42.76 32.1307 42.984 32.952 42.984 33.912C42.984 34.936 42.728 35.864 42.216 36.696C41.704 37.528 40.9467 38.1893 39.944 38.68C38.9627 39.1493 37.7787 39.384 36.392 39.384C34.7493 39.384 33.2453 39.0107 31.88 38.264C31.7733 38.2 31.6987 38.1253 31.656 38.04C31.6347 37.9547 31.6133 37.8267 31.592 37.656L31.176 33.304C31.1547 33.2187 31.1973 33.1653 31.304 33.144C31.432 33.1227 31.5067 33.1547 31.528 33.24C31.8693 34.776 32.4987 36.0987 33.416 37.208C34.3547 38.3173 35.592 38.872 37.128 38.872C38.1947 38.872 39.0907 38.584 39.816 38.008C40.5627 37.4107 40.936 36.472 40.936 35.192C40.936 34.232 40.7227 33.4 40.296 32.696C39.8693 31.992 39.3467 31.416 38.728 30.968C38.1307 30.4987 37.3093 29.9547 36.264 29.336C35.24 28.7173 34.4293 28.184 33.832 27.736C33.256 27.288 32.7653 26.7227 32.36 26.04C31.9547 25.3573 31.752 24.5573 31.752 23.64C31.752 22.5733 32.0293 21.6667 32.584 20.92C33.16 20.152 33.896 19.5867 34.792 19.224C35.7093 18.84 36.68 18.648 37.704 18.648C38.9627 18.648 40.2107 18.904 41.448 19.416C41.768 19.5227 41.928 19.704 41.928 19.96L42.152 23.64C42.152 23.7253 42.0987 23.768 41.992 23.768C41.8853 23.768 41.8213 23.7253 41.8 23.64C41.6293 22.5307 41.1707 21.5067 40.424 20.568C39.6773 19.608 38.6 19.128 37.192 19.128C35.9973 19.128 35.1013 19.48 34.504 20.184C33.928 20.8667 33.64 21.72 33.64 22.744ZM49.1028 22.616C48.6548 22.616 48.3028 22.4987 48.0468 22.264C47.8121 22.0293 47.6948 21.6987 47.6948 21.272C47.6948 20.8453 47.8121 20.5147 48.0468 20.28C48.3028 20.0453 48.6548 19.928 49.1028 19.928C49.5294 19.928 49.8601 20.0453 50.0948 20.28C50.3294 20.5147 50.4468 20.8453 50.4468 21.272C50.4468 21.6987 50.3294 22.0293 50.0948 22.264C49.8601 22.4987 49.5294 22.616 49.1028 22.616ZM46.4148 39C46.3721 39 46.3508 38.936 46.3508 38.808C46.3508 38.68 46.3721 38.616 46.4148 38.616C46.9908 38.616 47.4174 38.5627 47.6948 38.456C47.9934 38.328 48.1961 38.1147 48.3028 37.816C48.4094 37.496 48.4628 37.0267 48.4628 36.408V30.424C48.4628 29.656 48.3774 29.1013 48.2068 28.76C48.0574 28.4187 47.7908 28.248 47.4068 28.248C47.0228 28.248 46.5428 28.3973 45.9668 28.696H45.9348C45.8494 28.696 45.7854 28.6427 45.7428 28.536C45.7001 28.4293 45.7108 28.3547 45.7747 28.312L49.9348 26.392L50.0628 26.36C50.1054 26.36 50.1588 26.392 50.2228 26.456C50.2868 26.4987 50.3188 26.552 50.3188 26.616C50.3188 26.7653 50.3081 27.192 50.2868 27.896C50.2654 28.6 50.2548 29.432 50.2548 30.392V36.408C50.2548 37.048 50.3081 37.5173 50.4148 37.816C50.5214 38.1147 50.7134 38.328 50.9908 38.456C51.2681 38.5627 51.6948 38.616 52.2708 38.616C52.3348 38.616 52.3668 38.68 52.3668 38.808C52.3668 38.936 52.3348 39 52.2708 39C51.7801 39 51.3854 38.9893 51.0868 38.968L49.3588 38.936L47.6308 38.968C47.3321 38.9893 46.9268 39 46.4148 39ZM62.2688 26.36C62.7381 26.36 63.1861 26.488 63.6128 26.744C64.0394 27 64.2528 27.3093 64.2528 27.672C64.2528 27.9493 64.1568 28.184 63.9648 28.376C63.7941 28.568 63.5381 28.664 63.1968 28.664C63.0048 28.664 62.8341 28.632 62.6848 28.568C62.5568 28.4827 62.3968 28.3653 62.2048 28.216C62.0127 28.0453 61.8314 27.9173 61.6608 27.832C61.4901 27.7467 61.2874 27.704 61.0528 27.704C60.7754 27.704 60.4768 27.8213 60.1568 28.056C59.8581 28.2907 59.3781 28.792 58.7168 29.56V36.408C58.7168 37.048 58.7914 37.5173 58.9408 37.816C59.1114 38.1147 59.4101 38.328 59.8368 38.456C60.2634 38.5627 60.9248 38.616 61.8208 38.616C61.9061 38.616 61.9488 38.68 61.9488 38.808C61.9488 38.936 61.9061 39 61.8208 39C61.1381 39 60.5941 38.9893 60.1888 38.968L57.8208 38.936L56.0608 38.968C55.7834 38.9893 55.3994 39 54.9088 39C54.8448 39 54.8128 38.936 54.8128 38.808C54.8128 38.68 54.8448 38.616 54.9088 38.616C55.4848 38.616 55.9114 38.5627 56.1888 38.456C56.4661 38.328 56.6474 38.1147 56.7328 37.816C56.8394 37.5173 56.8928 37.048 56.8928 36.408V30.072C56.8928 29.3467 56.8074 28.824 56.6368 28.504C56.4661 28.184 56.1781 28.024 55.7728 28.024C55.4314 28.024 54.8554 28.184 54.0448 28.504H53.9808C53.8954 28.504 53.8314 28.4613 53.7888 28.376C53.7674 28.2693 53.7994 28.1947 53.8848 28.152L57.5968 26.392L57.7888 26.36C57.9808 26.36 58.1834 26.6053 58.3968 27.096C58.6101 27.5867 58.7168 28.216 58.7168 28.984V29.016C59.5914 27.992 60.2848 27.2987 60.7968 26.936C61.3088 26.552 61.7994 26.36 62.2688 26.36ZM66.405 39C66.341 39 66.309 38.936 66.309 38.808C66.309 38.68 66.341 38.616 66.405 38.616C66.981 38.616 67.4077 38.5627 67.685 38.456C67.9623 38.328 68.1543 38.1147 68.261 37.816C68.3677 37.496 68.421 37.0267 68.421 36.408V19.864C68.421 19.096 68.3463 18.5413 68.197 18.2C68.0477 17.8587 67.781 17.688 67.397 17.688C67.077 17.688 66.5863 17.8373 65.925 18.136H65.861C65.797 18.136 65.7437 18.0827 65.701 17.976C65.6797 17.8693 65.701 17.8053 65.765 17.784L69.861 15.832C69.9037 15.8107 69.957 15.8 70.021 15.8C70.0637 15.8 70.117 15.832 70.181 15.896C70.2663 15.9387 70.309 15.992 70.309 16.056V36.408C70.309 37.0267 70.3517 37.4853 70.437 37.784C70.5437 38.0827 70.7357 38.296 71.013 38.424C71.2903 38.552 71.717 38.616 72.293 38.616C72.357 38.616 72.389 38.68 72.389 38.808C72.389 38.936 72.357 39 72.293 39C71.8237 39 71.4397 38.9893 71.141 38.968L69.349 38.936L67.621 38.968C67.3223 38.9893 66.917 39 66.405 39ZM80.767 39.416C79.5297 39.416 78.431 39.1173 77.471 38.52C76.5323 37.9013 75.807 37.08 75.295 36.056C74.783 35.0107 74.527 33.88 74.527 32.664C74.527 31.2773 74.8577 30.104 75.519 29.144C76.2017 28.1627 77.0657 27.4373 78.111 26.968C79.1777 26.4773 80.255 26.232 81.343 26.232C82.6017 26.232 83.7003 26.5413 84.639 27.16C85.5777 27.7787 86.2923 28.6 86.783 29.624C87.295 30.6267 87.551 31.6933 87.551 32.824C87.551 34.1467 87.2417 35.3093 86.623 36.312C86.0043 37.2933 85.1723 38.0613 84.127 38.616C83.103 39.1493 81.983 39.416 80.767 39.416ZM81.695 38.808C82.8683 38.808 83.775 38.392 84.415 37.56C85.055 36.728 85.375 35.448 85.375 33.72C85.375 32.3973 85.151 31.2133 84.703 30.168C84.2763 29.1227 83.679 28.312 82.911 27.736C82.143 27.1387 81.2683 26.84 80.287 26.84C79.135 26.84 78.239 27.256 77.599 28.088C76.9803 28.92 76.671 30.1147 76.671 31.672C76.671 32.9733 76.8843 34.168 77.311 35.256C77.7377 36.344 78.335 37.208 79.103 37.848C79.871 38.488 80.735 38.808 81.695 38.808ZM93.0715 22.616C92.6235 22.616 92.2715 22.4987 92.0155 22.264C91.7808 22.0293 91.6635 21.6987 91.6635 21.272C91.6635 20.8453 91.7808 20.5147 92.0155 20.28C92.2715 20.0453 92.6235 19.928 93.0715 19.928C93.4982 19.928 93.8288 20.0453 94.0635 20.28C94.2982 20.5147 94.4155 20.8453 94.4155 21.272C94.4155 21.6987 94.2982 22.0293 94.0635 22.264C93.8288 22.4987 93.4982 22.616 93.0715 22.616ZM90.3835 39C90.3408 39 90.3195 38.936 90.3195 38.808C90.3195 38.68 90.3408 38.616 90.3835 38.616C90.9595 38.616 91.3862 38.5627 91.6635 38.456C91.9622 38.328 92.1648 38.1147 92.2715 37.816C92.3782 37.496 92.4315 37.0267 92.4315 36.408V30.424C92.4315 29.656 92.3462 29.1013 92.1755 28.76C92.0262 28.4187 91.7595 28.248 91.3755 28.248C90.9915 28.248 90.5115 28.3973 89.9355 28.696H89.9035C89.8182 28.696 89.7542 28.6427 89.7115 28.536C89.6688 28.4293 89.6795 28.3547 89.7435 28.312L93.9035 26.392L94.0315 26.36C94.0742 26.36 94.1275 26.392 94.1915 26.456C94.2555 26.4987 94.2875 26.552 94.2875 26.616C94.2875 26.7653 94.2768 27.192 94.2555 27.896C94.2342 28.6 94.2235 29.432 94.2235 30.392V36.408C94.2235 37.048 94.2768 37.5173 94.3835 37.816C94.4902 38.1147 94.6822 38.328 94.9595 38.456C95.2368 38.5627 95.6635 38.616 96.2395 38.616C96.3035 38.616 96.3355 38.68 96.3355 38.808C96.3355 38.936 96.3035 39 96.2395 39C95.7488 39 95.3542 38.9893 95.0555 38.968L93.3275 38.936L91.5995 38.968C91.3008 38.9893 90.8955 39 90.3835 39ZM113.278 38.616C113.342 38.616 113.374 38.68 113.374 38.808C113.374 38.936 113.342 39 113.278 39C112.787 39 112.403 38.9893 112.126 38.968L110.398 38.936L108.638 38.968C108.36 38.9893 107.976 39 107.486 39C107.422 39 107.39 38.936 107.39 38.808C107.39 38.68 107.422 38.616 107.486 38.616C108.062 38.616 108.488 38.5627 108.766 38.456C109.043 38.328 109.224 38.1147 109.31 37.816C109.416 37.5173 109.47 37.048 109.47 36.408V31.224C109.47 29.9653 109.224 29.0373 108.734 28.44C108.264 27.8427 107.528 27.544 106.526 27.544C105.864 27.544 105.192 27.7253 104.51 28.088C103.848 28.4293 103.24 28.9093 102.686 29.528V36.408C102.686 37.048 102.728 37.5173 102.814 37.816C102.92 38.1147 103.112 38.328 103.39 38.456C103.667 38.5627 104.094 38.616 104.67 38.616C104.734 38.616 104.766 38.68 104.766 38.808C104.766 38.936 104.734 39 104.67 39C104.179 39 103.795 38.9893 103.518 38.968L101.79 38.936L100.03 38.968C99.7522 38.9893 99.3682 39 98.8775 39C98.8135 39 98.7815 38.936 98.7815 38.808C98.7815 38.68 98.8135 38.616 98.8775 38.616C99.4535 38.616 99.8802 38.5627 100.158 38.456C100.435 38.328 100.616 38.1147 100.702 37.816C100.808 37.5173 100.862 37.048 100.862 36.408V30.072C100.862 29.3467 100.776 28.824 100.606 28.504C100.435 28.184 100.147 28.024 99.7415 28.024C99.4002 28.024 98.8242 28.184 98.0135 28.504H97.9495C97.8642 28.504 97.8002 28.4613 97.7575 28.376C97.7362 28.2693 97.7682 28.1947 97.8535 28.152L101.566 26.392L101.758 26.36C101.95 26.36 102.152 26.6053 102.366 27.096C102.579 27.5867 102.686 28.216 102.686 28.984C103.496 28.0453 104.296 27.352 105.086 26.904C105.896 26.456 106.728 26.232 107.582 26.232C108.776 26.232 109.694 26.5627 110.334 27.224C110.974 27.8853 111.294 28.856 111.294 30.136V36.408C111.294 37.048 111.336 37.5173 111.422 37.816C111.528 38.1147 111.72 38.328 111.998 38.456C112.275 38.5627 112.702 38.616 113.278 38.616ZM33.64 52.744C33.64 53.576 33.8427 54.3013 34.248 54.92C34.6533 55.5387 35.144 56.0613 35.72 56.488C36.3173 56.8933 37.128 57.4053 38.152 58.024C39.2827 58.7067 40.1467 59.272 40.744 59.72C41.3627 60.168 41.8853 60.744 42.312 61.448C42.76 62.1307 42.984 62.952 42.984 63.912C42.984 64.936 42.728 65.864 42.216 66.696C41.704 67.528 40.9467 68.1893 39.944 68.68C38.9627 69.1493 37.7787 69.384 36.392 69.384C34.7493 69.384 33.2453 69.0107 31.88 68.264C31.7733 68.2 31.6987 68.1253 31.656 68.04C31.6347 67.9547 31.6133 67.8267 31.592 67.656L31.176 63.304C31.1547 63.2187 31.1973 63.1653 31.304 63.144C31.432 63.1227 31.5067 63.1547 31.528 63.24C31.8693 64.776 32.4987 66.0987 33.416 67.208C34.3547 68.3173 35.592 68.872 37.128 68.872C38.1947 68.872 39.0907 68.584 39.816 68.008C40.5627 67.4107 40.936 66.472 40.936 65.192C40.936 64.232 40.7227 63.4 40.296 62.696C39.8693 61.992 39.3467 61.416 38.728 60.968C38.1307 60.4987 37.3093 59.9547 36.264 59.336C35.24 58.7173 34.4293 58.184 33.832 57.736C33.256 57.288 32.7653 56.7227 32.36 56.04C31.9547 55.3573 31.752 54.5573 31.752 53.64C31.752 52.5733 32.0293 51.6667 32.584 50.92C33.16 50.152 33.896 49.5867 34.792 49.224C35.7093 48.84 36.68 48.648 37.704 48.648C38.9627 48.648 40.2107 48.904 41.448 49.416C41.768 49.5227 41.928 49.704 41.928 49.96L42.152 53.64C42.152 53.7253 42.0987 53.768 41.992 53.768C41.8853 53.768 41.8213 53.7253 41.8 53.64C41.6293 52.5307 41.1707 51.5067 40.424 50.568C39.6773 49.608 38.6 49.128 37.192 49.128C35.9973 49.128 35.1013 49.48 34.504 50.184C33.928 50.8667 33.64 51.72 33.64 52.744ZM52.1108 69.416C50.8734 69.416 49.7748 69.1173 48.8148 68.52C47.8761 67.9013 47.1508 67.08 46.6388 66.056C46.1268 65.0107 45.8708 63.88 45.8708 62.664C45.8708 61.2773 46.2014 60.104 46.8628 59.144C47.5454 58.1627 48.4094 57.4373 49.4548 56.968C50.5214 56.4773 51.5988 56.232 52.6868 56.232C53.9454 56.232 55.0441 56.5413 55.9828 57.16C56.9214 57.7787 57.6361 58.6 58.1268 59.624C58.6388 60.6267 58.8948 61.6933 58.8948 62.824C58.8948 64.1467 58.5854 65.3093 57.9668 66.312C57.3481 67.2933 56.5161 68.0613 55.4708 68.616C54.4468 69.1493 53.3268 69.416 52.1108 69.416ZM53.0388 68.808C54.2121 68.808 55.1188 68.392 55.7588 67.56C56.3988 66.728 56.7188 65.448 56.7188 63.72C56.7188 62.3973 56.4948 61.2133 56.0468 60.168C55.6201 59.1227 55.0228 58.312 54.2548 57.736C53.4868 57.1387 52.6121 56.84 51.6308 56.84C50.4788 56.84 49.5828 57.256 48.9427 58.088C48.3241 58.92 48.0148 60.1147 48.0148 61.672C48.0148 62.9733 48.2281 64.168 48.6548 65.256C49.0814 66.344 49.6788 67.208 50.4468 67.848C51.2148 68.488 52.0788 68.808 53.0388 68.808ZM67.4233 69.384C66.0366 69.384 64.8739 69.0853 63.9353 68.488C62.9966 67.8693 62.3033 67.08 61.8553 66.12C61.4073 65.16 61.1833 64.1467 61.1833 63.08C61.1833 61.7147 61.5246 60.5307 62.2073 59.528C62.8899 58.504 63.7646 57.7253 64.8313 57.192C65.9193 56.6373 67.0286 56.36 68.1593 56.36C69.0979 56.36 69.9513 56.552 70.7193 56.936C71.5086 57.2987 71.9033 57.7573 71.9033 58.312C71.9033 58.5893 71.7966 58.8347 71.5833 59.048C71.3913 59.24 71.1246 59.336 70.7833 59.336C70.2073 59.336 69.7379 58.984 69.3753 58.28C69.0979 57.8533 68.7993 57.5333 68.4792 57.32C68.1593 57.1067 67.7006 57 67.1033 57C65.9086 57 64.9699 57.4693 64.2873 58.408C63.6259 59.3253 63.2953 60.5627 63.2953 62.12C63.2953 63.912 63.7433 65.384 64.6393 66.536C65.5353 67.688 66.8793 68.264 68.6713 68.264C69.9726 68.264 71.0606 67.912 71.9353 67.208H71.9673C72.0313 67.208 72.0846 67.24 72.1273 67.304C72.1913 67.368 72.2019 67.4213 72.1593 67.464C71.4126 68.1253 70.6553 68.616 69.8873 68.936C69.1406 69.2347 68.3193 69.384 67.4233 69.384ZM77.5715 52.616C77.1235 52.616 76.7715 52.4987 76.5155 52.264C76.2808 52.0293 76.1635 51.6987 76.1635 51.272C76.1635 50.8453 76.2808 50.5147 76.5155 50.28C76.7715 50.0453 77.1235 49.928 77.5715 49.928C77.9982 49.928 78.3288 50.0453 78.5635 50.28C78.7982 50.5147 78.9155 50.8453 78.9155 51.272C78.9155 51.6987 78.7982 52.0293 78.5635 52.264C78.3288 52.4987 77.9982 52.616 77.5715 52.616ZM74.8835 69C74.8408 69 74.8195 68.936 74.8195 68.808C74.8195 68.68 74.8408 68.616 74.8835 68.616C75.4595 68.616 75.8862 68.5627 76.1635 68.456C76.4622 68.328 76.6648 68.1147 76.7715 67.816C76.8782 67.496 76.9315 67.0267 76.9315 66.408V60.424C76.9315 59.656 76.8462 59.1013 76.6755 58.76C76.5262 58.4187 76.2595 58.248 75.8755 58.248C75.4915 58.248 75.0115 58.3973 74.4355 58.696H74.4035C74.3182 58.696 74.2542 58.6427 74.2115 58.536C74.1688 58.4293 74.1795 58.3547 74.2435 58.312L78.4035 56.392L78.5315 56.36C78.5742 56.36 78.6275 56.392 78.6915 56.456C78.7555 56.4987 78.7875 56.552 78.7875 56.616C78.7875 56.7653 78.7768 57.192 78.7555 57.896C78.7342 58.6 78.7235 59.432 78.7235 60.392V66.408C78.7235 67.048 78.7768 67.5173 78.8835 67.816C78.9902 68.1147 79.1822 68.328 79.4595 68.456C79.7368 68.5627 80.1635 68.616 80.7395 68.616C80.8035 68.616 80.8355 68.68 80.8355 68.808C80.8355 68.936 80.8035 69 80.7395 69C80.2488 69 79.8542 68.9893 79.5555 68.968L77.8275 68.936L76.0995 68.968C75.8008 68.9893 75.3955 69 74.8835 69ZM93.4255 67.208C93.4895 67.208 93.5428 67.2507 93.5855 67.336C93.6495 67.4 93.6602 67.464 93.6175 67.528C92.2095 68.7653 90.6522 69.384 88.9455 69.384C87.7082 69.384 86.6522 69.096 85.7775 68.52C84.9028 67.944 84.2308 67.1867 83.7615 66.248C83.3135 65.3093 83.0895 64.3067 83.0895 63.24C83.0895 61.9813 83.3882 60.8293 83.9855 59.784C84.5828 58.7173 85.3935 57.8853 86.4175 57.288C87.4628 56.6693 88.6042 56.36 89.8415 56.36C91.0362 56.36 91.9535 56.68 92.5935 57.32C93.2335 57.96 93.5535 58.856 93.5535 60.008C93.5535 60.3067 93.5215 60.52 93.4575 60.648C93.4148 60.776 93.3295 60.84 93.2015 60.84L85.2655 60.872C85.2228 61.3413 85.2015 61.7253 85.2015 62.024C85.2015 63.88 85.6388 65.384 86.5135 66.536C87.3882 67.688 88.6148 68.264 90.1935 68.264C90.8335 68.264 91.3775 68.1787 91.8255 68.008C92.2948 67.8373 92.8175 67.5707 93.3935 67.208H93.4255ZM88.7855 57C87.8682 57 87.1108 57.3093 86.5135 57.928C85.9162 58.5253 85.5215 59.368 85.3295 60.456L91.4095 60.328C91.4095 59.24 91.1748 58.4187 90.7055 57.864C90.2362 57.288 89.5962 57 88.7855 57ZM104.952 67.336C105.037 67.336 105.101 67.3893 105.144 67.496C105.187 67.5813 105.176 67.6453 105.112 67.688C104.323 68.3067 103.608 68.744 102.968 69C102.349 69.256 101.699 69.384 101.016 69.384C100.12 69.384 99.384 69.1813 98.808 68.776C98.232 68.3707 97.944 67.6987 97.944 66.76V59.24C97.944 58.6853 97.9013 58.2907 97.816 58.056C97.752 57.8213 97.6133 57.672 97.4 57.608C97.1867 57.5227 96.824 57.48 96.312 57.48C96.2267 57.48 96.184 57.416 96.184 57.288C96.184 57.1387 96.2267 57.064 96.312 57.064C97.1653 57.0427 97.8587 56.8187 98.392 56.392C98.9253 55.944 99.2347 55.3573 99.32 54.632C99.32 54.568 99.4053 54.536 99.576 54.536C99.7253 54.536 99.8 54.568 99.8 54.632V57C100.867 56.9787 102.349 56.872 104.248 56.68C104.291 56.68 104.333 56.7653 104.376 56.936C104.44 57.0853 104.472 57.256 104.472 57.448C104.472 57.6187 104.429 57.8 104.344 57.992C104.28 58.1627 104.205 58.2373 104.12 58.216C102.947 57.9173 101.507 57.7467 99.8 57.704V65.672C99.8 66.5467 100.013 67.1973 100.44 67.624C100.888 68.0507 101.517 68.264 102.328 68.264C103.267 68.264 104.12 67.9653 104.888 67.368L104.952 67.336ZM119.605 56.648C119.669 56.648 119.701 56.712 119.701 56.84C119.701 56.968 119.669 57.032 119.605 57.032C119.071 57.032 118.613 57.224 118.229 57.608C117.845 57.992 117.482 58.6213 117.141 59.496L113.237 69.896C112.447 71.9653 111.701 73.576 110.997 74.728C110.314 75.9013 109.599 76.7333 108.853 77.224C108.127 77.736 107.285 77.992 106.325 77.992C105.855 77.992 105.471 77.8853 105.172 77.672C104.852 77.4587 104.692 77.1493 104.692 76.744C104.692 76.4453 104.788 76.2107 104.98 76.04C105.172 75.8693 105.407 75.784 105.684 75.784C105.962 75.784 106.197 75.816 106.389 75.88C106.581 75.944 106.783 76.0507 106.997 76.2C107.039 76.2213 107.157 76.2853 107.349 76.392C107.562 76.4987 107.818 76.552 108.117 76.552C108.629 76.552 109.109 76.328 109.557 75.88C110.026 75.432 110.517 74.6747 111.029 73.608C111.562 72.5627 112.181 71.112 112.885 69.256L108.021 59.304C107.53 58.3653 107.157 57.7573 106.901 57.48C106.645 57.1813 106.314 57.032 105.909 57.032C105.866 57.032 105.845 56.968 105.845 56.84C105.845 56.712 105.866 56.648 105.909 56.648L106.997 56.68C107.253 56.7013 107.605 56.712 108.053 56.712L110.101 56.68C110.399 56.6587 110.815 56.648 111.349 56.648C111.391 56.648 111.413 56.712 111.413 56.84C111.413 56.968 111.391 57.032 111.349 57.032C110.111 57.032 109.493 57.2773 109.493 57.768C109.493 57.896 109.546 58.0667 109.653 58.28L113.877 66.952L116.437 59.592C116.607 59.08 116.693 58.6747 116.693 58.376C116.693 57.8853 116.501 57.544 116.117 57.352C115.733 57.1387 115.103 57.032 114.229 57.032C114.186 57.032 114.165 56.968 114.165 56.84C114.165 56.712 114.186 56.648 114.229 56.648C114.805 56.648 115.242 56.6587 115.541 56.68L117.461 56.712L118.613 56.68C118.826 56.6587 119.157 56.648 119.605 56.648Z" fill="#F8D6CB"/>
</g>
<defs>
<filter id="filter0_d_40_518" x="29.144" y="15.8" width="92.5565" height="66.192" filterUnits="userSpaceOnUse" color-interpolation-filters="sRGB">
<feFlood flood-opacity="0" result="BackgroundImageFix"/>
<feColorMatrix in="SourceAlpha" type="matrix" values="0 0 0 0 0 0 0 0 0 0 0 0 0 0 0 0 0 0 127 0" result="hardAlpha"/>
<feOffset dy="2"/>
<feGaussianBlur stdDeviation="1"/>
<feComposite in2="hardAlpha" operator="out"/>
<feColorMatrix type="matrix" values="0 0 0 0 0.384314 0 0 0 0 0.0509804 0 0 0 0 0.0352941 0 0 0 1 0"/>
<feBlend mode="normal" in2="BackgroundImageFix" result="effect1_dropShadow_40_518"/>
<feBlend mode="normal" in="SourceGraphic" in2="effect1_dropShadow_40_518" result="shape"/>
</filter>
<linearGradient id="paint0_linear_40_518" x1="74" y1="0" x2="74" y2="90" gradientUnits="userSpaceOnUse">
<stop stop-color="#620D09"/>
<stop offset="0.833333" stop-color="#620D09" stop-opacity="0.2"/>
<stop offset="1" stop-color="#620D09" stop-opacity="0"/>
</linearGradient>
</defs>
</svg>
