<svg width="97" height="97" viewBox="0 0 97 97" fill="none" xmlns="http://www.w3.org/2000/svg">
<g opacity="0.8" filter="url(#filter0_d_40_647)">
<circle cx="48.5" cy="44.5" r="44.5" fill="#F8D6CB"/>
</g>
<path d="M60.3271 34.4643C58.899 33.0436 57.1978 31.9172 55.323 31.1507C53.4481 30.3843 51.437 29.9931 49.407 30.0001C40.9015 30.0001 33.9693 36.8267 33.9693 45.2028C33.9693 47.8874 34.6859 50.4954 36.0256 52.7965L33.8447 60.6816L42.0231 58.5646C44.2819 59.7765 46.8211 60.4208 49.407 60.4208C57.9126 60.4208 64.8447 53.5942 64.8447 45.2181C64.8447 41.1528 63.2402 37.333 60.3271 34.4643ZM49.407 57.8436C47.1015 57.8436 44.8427 57.23 42.8643 56.0794L42.397 55.8033L37.5367 57.0612L38.8297 52.3976L38.5181 51.9221C37.2372 49.9078 36.5571 47.5795 36.5553 45.2028C36.5553 38.2381 42.3191 32.562 49.3915 32.562C52.8186 32.562 56.0432 33.8813 58.4578 36.2745C59.6534 37.4464 60.6008 38.8405 61.2453 40.3757C61.8897 41.911 62.2183 43.5569 62.2121 45.2181C62.2432 52.1829 56.4794 57.8436 49.407 57.8436ZM56.4482 48.3937C56.0588 48.2096 54.1583 47.2891 53.8156 47.1511C53.4573 47.0284 53.208 46.967 52.9432 47.3352C52.6784 47.7187 51.9462 48.5778 51.7281 48.8232C51.51 49.084 51.2764 49.1147 50.8869 48.9153C50.4975 48.7312 49.2513 48.317 47.7869 47.0284C46.6342 46.0159 45.8709 44.7733 45.6372 44.3897C45.4191 44.0062 45.606 43.8068 45.8085 43.6074C45.9799 43.4386 46.198 43.1625 46.3849 42.9477C46.5719 42.7329 46.6498 42.5642 46.7744 42.3187C46.899 42.0579 46.8367 41.8432 46.7432 41.6591C46.6497 41.475 45.8709 39.6034 45.5593 38.8364C45.2477 38.1 44.9206 38.1921 44.6869 38.1767H43.9392C43.6744 38.1767 43.2693 38.2688 42.9111 38.6523C42.5683 39.0358 41.5714 39.9563 41.5714 41.8278C41.5714 43.6994 42.9578 45.5096 43.1447 45.7551C43.3317 46.0159 45.8709 49.8511 49.7342 51.4925C50.6533 51.8914 51.3699 52.1215 51.9307 52.2902C52.8497 52.5817 53.691 52.5357 54.3608 52.4436C55.1085 52.3363 56.6508 51.5232 56.9623 50.6334C57.2894 49.7437 57.2894 48.992 57.1804 48.8232C57.0714 48.6545 56.8377 48.5778 56.4482 48.3937Z" fill="#620D09"/>
<defs>
<filter id="filter0_d_40_647" x="0" y="0" width="97" height="97" filterUnits="userSpaceOnUse" color-interpolation-filters="sRGB">
<feFlood flood-opacity="0" result="BackgroundImageFix"/>
<feColorMatrix in="SourceAlpha" type="matrix" values="0 0 0 0 0 0 0 0 0 0 0 0 0 0 0 0 0 0 127 0" result="hardAlpha"/>
<feOffset dy="4"/>
<feGaussianBlur stdDeviation="2"/>
<feComposite in2="hardAlpha" operator="out"/>
<feColorMatrix type="matrix" values="0 0 0 0 0.384314 0 0 0 0 0.0509804 0 0 0 0 0.0352941 0 0 0 1 0"/>
<feBlend mode="normal" in2="BackgroundImageFix" result="effect1_dropShadow_40_647"/>
<feBlend mode="normal" in="SourceGraphic" in2="effect1_dropShadow_40_647" result="shape"/>
</filter>
</defs>
</svg>
